<svg width="128" height="128" viewBox="0 0 128 128" xmlns="http://www.w3.org/2000/svg">
  <defs>
    <linearGradient id="bgGradient" x1="0%" y1="0%" x2="100%" y2="100%">
      <stop offset="0%" style="stop-color:#667eea;stop-opacity:1" />
      <stop offset="100%" style="stop-color:#764ba2;stop-opacity:1" />
    </linearGradient>
    <linearGradient id="pointerGradient" x1="0%" y1="0%" x2="100%" y2="100%">
      <stop offset="0%" style="stop-color:#ffffff;stop-opacity:1" />
      <stop offset="100%" style="stop-color:#f0f0f0;stop-opacity:1" />
    </linearGradient>
    <filter id="shadow" x="-20%" y="-20%" width="140%" height="140%">
      <feDropShadow dx="0" dy="4" stdDeviation="8" flood-color="#000000" flood-opacity="0.2"/>
    </filter>
    <filter id="glow" x="-50%" y="-50%" width="200%" height="200%">
      <feGaussianBlur stdDeviation="3" result="coloredBlur"/>
      <feMerge> 
        <feMergeNode in="coloredBlur"/>
        <feMergeNode in="SourceGraphic"/>
      </feMerge>
    </filter>
  </defs>
  
  <!-- Background circle with gradient -->
  <circle cx="64" cy="64" r="60" fill="url(#bgGradient)" filter="url(#shadow)"/>
  
  <!-- Crosshair lines -->
  <g stroke="#ffffff" stroke-width="3" opacity="0.8">
    <line x1="64" y1="20" x2="64" y2="40" stroke-linecap="round"/>
    <line x1="64" y1="88" x2="64" y2="108" stroke-linecap="round"/>
    <line x1="20" y1="64" x2="40" y2="64" stroke-linecap="round"/>
    <line x1="88" y1="64" x2="108" y2="64" stroke-linecap="round"/>
  </g>
  
  <!-- Center dot -->
  <circle cx="64" cy="64" r="4" fill="#ffffff" filter="url(#glow)"/>
  
  <!-- Mouse pointer -->
  <g transform="translate(45, 35) scale(0.8)">
    <path d="M0 0 L20 0 L12 12 L8 8 L0 20 Z" fill="url(#pointerGradient)" stroke="#ffffff" stroke-width="1"/>
    <path d="M2 2 L18 2 L11 11 L7 7 L2 18 Z" fill="none" stroke="#667eea" stroke-width="1" opacity="0.6"/>
  </g>
  
  <!-- Coordinate indicators -->
  <g font-family="Arial, sans-serif" font-size="10" fill="#ffffff" text-anchor="middle" opacity="0.9">
    <text x="64" y="15">X</text>
    <text x="64" y="125">Y</text>
    <text x="15" y="70">X</text>
    <text x="113" y="70">Y</text>
  </g>
</svg> 